<?xml version="1.0" encoding="utf-8"?><svg viewBox="0 0 502.66 502.66" xmlns="http://www.w3.org/2000/svg" xmlns:xlink="http://www.w3.org/1999/xlink"><style>:root>svg{display:none}:root>svg:target{display:block}</style><svg viewBox="0 0 14 14" id="favor" xmlns="http://www.w3.org/2000/svg"><g clip-path="url(#aa)"><path d="M3.252 8.961l-.74 4.53c-.058.36.326.63.644.454L7 11.821l3.844 2.125a.438.438 0 00.644-.454l-.74-4.53 3.127-3.205a.438.438 0 00-.247-.738l-4.303-.657-1.93-4.11c-.144-.306-.647-.306-.791 0l-1.929 4.11-4.303.657a.437.437 0 00-.247.738l3.127 3.205z"/></g><defs><clipPath id="aa"><path d="M0 0h14v14H0z"/></clipPath></defs></svg><svg viewBox="0 0 502.664 502.664" id="icon" xmlns="http://www.w3.org/2000/svg"><path d="M153.821 358.226L0 274.337v-46.463l153.821-83.414v54.574L46.636 250.523l107.185 53.431v54.272zm26.273 29.358L282.103 115.08h32.227L212.084 387.584h-31.99zm168.749-29.358v-54.272l107.164-52.999-107.164-52.59v-53.927l153.821 83.522v46.183l-153.821 84.083z"/></svg><svg viewBox="0 0 20 20" id="search" xmlns="http://www.w3.org/2000/svg"><path d="M19.054 16.56l-4.535-4.534a7.379 7.379 0 001.078-3.852c0-4.1-3.553-7.653-7.654-7.653A7.422 7.422 0 00.52 7.944c0 4.1 3.553 7.653 7.652 7.653a7.38 7.38 0 003.738-1.013l4.56 4.561a1.144 1.144 0 001.614 0l1.132-1.131c.445-.446.283-1.008-.162-1.454zM2.804 7.944a5.138 5.138 0 015.14-5.14c2.838 0 5.368 2.53 5.368 5.37a5.14 5.14 0 01-5.14 5.14c-2.839-.002-5.367-2.532-5.367-5.37z"/></svg></svg>